<svg width="71" height="71" viewBox="0 0 71 71" fill="none" xmlns="http://www.w3.org/2000/svg">
<path d="M35.5 0C28.4788 0 21.6152 2.08204 15.7773 5.98283C9.93933 9.88362 5.3892 15.428 2.70229 21.9147C0.0153819 28.4015 -0.687637 35.5394 0.682138 42.4257C2.05191 49.312 5.43296 55.6375 10.3977 60.6023C15.3625 65.567 21.688 68.9481 28.5743 70.3179C35.4606 71.6876 42.5985 70.9846 49.0853 68.2977C55.572 65.6108 61.1164 61.0607 65.0172 55.2227C68.918 49.3848 71 42.5212 71 35.5C70.9894 26.0881 67.2458 17.0647 60.5905 10.4095C53.9353 3.75424 44.9119 0.0106487 35.5 0ZM35.5 66.2667C29.4149 66.2667 23.4665 64.4622 18.407 61.0815C13.3474 57.7009 9.40398 52.8958 7.07532 47.2739C4.74667 41.652 4.13738 35.4659 5.32452 29.4977C6.51166 23.5296 9.4419 18.0475 13.7447 13.7447C18.0475 9.44188 23.5296 6.51164 29.4977 5.32451C35.4659 4.13737 41.652 4.74665 47.2739 7.07531C52.8958 9.40396 57.7009 13.3474 61.0816 18.407C64.4622 23.4665 66.2667 29.4149 66.2667 35.5C66.2573 43.6569 63.0128 51.4771 57.245 57.2449C51.4771 63.0128 43.657 66.2573 35.5 66.2667ZM40.2333 18.9333H28.4C27.7723 18.9333 27.1704 19.1827 26.7265 19.6265C26.2827 20.0703 26.0333 20.6723 26.0333 21.3V54.4333C26.0333 55.061 26.2827 55.663 26.7265 56.1068C27.1704 56.5506 27.7723 56.8 28.4 56.8C29.0277 56.8 29.6297 56.5506 30.0735 56.1068C30.5173 55.663 30.7667 55.061 30.7667 54.4333V40.2333H40.2333C42.1164 40.2333 43.9223 39.4853 45.2538 38.1538C46.5853 36.8223 47.3333 35.0164 47.3333 33.1333V26.0333C47.3333 24.1503 46.5853 22.3444 45.2538 21.0129C43.9223 19.6814 42.1164 18.9333 40.2333 18.9333ZM42.6 33.1333C42.6 33.761 42.3507 34.363 41.9068 34.8068C41.463 35.2506 40.861 35.5 40.2333 35.5H30.7667V23.6667H40.2333C40.861 23.6667 41.463 23.916 41.9068 24.3598C42.3507 24.8037 42.6 25.4057 42.6 26.0333V33.1333Z" fill="white"/>
</svg>
