<svg width="56" height="54" viewBox="0 0 56 54" fill="none" xmlns="http://www.w3.org/2000/svg">
<path d="M9.04163 53.6667H46.9583C49.1132 53.6667 51.1798 52.8238 52.7035 51.3235C54.2273 49.8232 55.0833 47.7884 55.0833 45.6667V8.33334C55.0833 6.2116 54.2273 4.17677 52.7035 2.67648C51.1798 1.17619 49.1132 0.333336 46.9583 0.333336H9.04163C6.88674 0.333336 4.82012 1.17619 3.29638 2.67648C1.77265 4.17677 0.916626 6.2116 0.916626 8.33334V45.6667C0.916626 47.7884 1.77265 49.8232 3.29638 51.3235C4.82012 52.8238 6.88674 53.6667 9.04163 53.6667ZM6.33329 8.33334C6.33329 7.62609 6.61864 6.94782 7.12655 6.44772C7.63446 5.94762 8.32333 5.66667 9.04163 5.66667H46.9583C47.6766 5.66667 48.3655 5.94762 48.8734 6.44772C49.3813 6.94782 49.6666 7.62609 49.6666 8.33334V45.6667C49.6666 46.3739 49.3813 47.0522 48.8734 47.5523C48.3655 48.0524 47.6766 48.3333 46.9583 48.3333H9.04163C8.32333 48.3333 7.63446 48.0524 7.12655 47.5523C6.61864 47.0522 6.33329 46.3739 6.33329 45.6667V8.33334ZM19.875 43C20.5933 43 21.2821 42.7191 21.79 42.219C22.298 41.7189 22.5833 41.0406 22.5833 40.3333V32.3333H28C30.8731 32.3333 33.6286 31.2095 35.6603 29.2091C37.6919 27.2088 38.8333 24.4956 38.8333 21.6667C38.8333 18.8377 37.6919 16.1246 35.6603 14.1242C33.6286 12.1238 30.8731 11 28 11H19.875C19.1567 11 18.4678 11.281 17.9599 11.7811C17.452 12.2811 17.1666 12.9594 17.1666 13.6667V40.3333C17.1666 41.0406 17.452 41.7189 17.9599 42.219C18.4678 42.7191 19.1567 43 19.875 43ZM22.5833 16.3333H28C29.4366 16.3333 30.8143 16.8952 31.8301 17.8954C32.8459 18.8956 33.4166 20.2522 33.4166 21.6667C33.4166 23.0812 32.8459 24.4377 31.8301 25.4379C30.8143 26.4381 29.4366 27 28 27H22.5833V16.3333Z" fill="#F2EEF3"/>
</svg>
