<svg width="96" height="53" viewBox="0 0 96 53" fill="none" xmlns="http://www.w3.org/2000/svg">
<g clip-path="url(#clip0_64_27276)">
<path d="M71.3918 4.9606V2.21951C71.3918 0.996361 70.4356 0 69.2581 0H68.5097V7.18098H69.2581C70.4356 7.18098 71.3918 6.18462 71.3918 4.9606ZM3.29797 24.607H1.9515V21.5623H3.29797V20.0833H0.453311V26.0861H3.29797V24.607ZM18.2828 49.9924C16.6498 49.9924 15.1052 49.6315 13.7096 48.9995L8.50513 49.0772C11.0381 51.5032 14.4864 53 18.2828 53C22.2284 53 25.7944 51.3788 28.348 48.7807L23.1614 48.8584C21.6918 49.5829 20.0364 49.9924 18.2828 49.9924ZM46.6704 15.6372C46.7642 15.3159 46.824 14.9674 46.824 14.5941C46.824 12.6367 44.6678 12.4619 44.6678 12.4619C44.6678 12.4619 31.5543 12.4619 29.3552 12.4619C27.1534 12.4619 27.1534 13.8545 27.1534 14.8111C27.1534 15.0371 27.2471 15.3274 27.39 15.6372H46.6704ZM4.84883 47.652L43.057 47.081L43.5936 43.7928L4.84883 43.2138V47.652ZM39.3936 38.6266H30.1766H30.1873C30.182 38.6266 30.1704 38.6257 30.1632 38.6257C30.1311 38.6257 30.0954 38.6247 30.0579 38.623C30.0338 38.6222 30.0096 38.6213 29.9829 38.6195C29.732 38.6098 29.4936 38.5824 29.2739 38.533C27.4552 38.1279 26.7034 36.4583 26.6489 35.2942L26.6471 35.2615V35.0224H20.4149L21.3828 28.6683C21.5775 28.7248 21.7721 28.7795 21.9641 28.8475C23.8177 29.4996 25.4453 30.6222 26.6927 32.0792C26.6695 31.8974 26.6453 31.6362 26.6453 31.2902C26.6453 30.5189 26.7846 29.4608 27.373 28.5094C27.4739 28.3506 27.5829 28.1918 27.7088 28.0399C28.3088 27.3225 29.4579 26.4673 31.532 26.4673C35.0624 26.4673 43.6124 27.6243 45.424 32.569L45.9151 29.5482L44.1784 28.3003L44.1802 28.2986C44.1802 28.2977 44.1802 28.2967 44.1802 28.2967C44.2633 28.3533 44.3472 28.4098 44.4356 28.461L43.7945 28.0002C43.5954 27.8202 43.4249 27.6181 43.3008 27.3905C42.9695 26.7868 42.9749 26.0323 43.3142 25.1462H43.3124L43.3159 25.1383L43.5088 24.6953L46.6686 17.118L46.6704 17.1163H25.7114V13.5209C25.7114 12.9067 25.2097 12.4098 24.5891 12.4098C23.9703 12.4098 23.4677 12.9067 23.4677 13.5209C23.4677 13.5209 23.4677 16.3829 23.4677 17.1163C21.5043 17.1163 6.82297 17.1163 6.82297 17.1163C6.20246 17.1163 5.69974 17.614 5.69974 18.2265C5.69974 18.8389 6.20246 19.3367 6.82297 19.3367H14.8444C12.4239 19.9041 10.3721 20.964 8.63996 22.2913L4.79439 20.0833V26.2361C1.20595 31.0334 0.0354262 36.4238 0.014905 36.5217C-0.0315456 36.7485 0.0318523 36.9851 0.18723 37.1581C0.343453 37.3319 0.572075 37.4237 0.805983 37.4069L4.36314 37.1369C4.27115 37.7785 4.22029 38.435 4.22029 39.1014C4.22029 39.9989 4.31047 40.8778 4.47564 41.7286L7.61223 41.7754C7.39085 40.9176 7.26225 40.0253 7.26225 39.1014C7.26225 38.1006 7.4096 37.136 7.66672 36.2138C8.95332 31.6062 13.2185 28.2077 18.2828 28.2077C18.3302 28.2077 18.3766 28.2111 18.4239 28.2129L17.3739 35.1257C15.5328 35.5351 14.156 37.1581 14.156 39.1014C14.156 40.1807 14.5837 41.1602 15.2775 41.8892L28.8579 42.0922C28.8489 42.1275 28.8409 42.1619 28.832 42.1955C28.8409 42.161 28.8525 42.1275 28.8641 42.0922L43.8338 42.3163L44.6588 37.2516C43.6329 38.1712 41.8892 38.6266 39.3936 38.6266ZM67.3767 39.1014C67.3767 35.033 69.0947 31.3582 71.8472 28.738L78.2152 40.8487C78.8768 42.2246 80.2929 43.1794 81.9394 43.1794C84.218 43.1794 86.0644 41.3535 86.0644 39.1014C86.0644 36.8474 84.218 35.0224 81.9394 35.0224C81.3848 35.0224 80.8571 35.1327 80.374 35.3278L75.558 26.1664C77.4858 25.2336 79.65 24.7067 81.9394 24.7067C84.2285 24.7067 86.4197 25.2203 88.4536 26.2308C89.3027 26.6527 90.3375 26.3138 90.7643 25.4754C91.1911 24.6353 90.8482 23.6124 90 23.1897C87.4821 21.9392 84.7697 21.3046 81.9394 21.3046C79.0786 21.3046 76.3751 21.9701 73.9714 23.15L73.5884 22.4202C74.5374 21.9603 75.7964 21.3505 75.9089 21.2958C76.1161 21.2623 85.0617 19.7382 85.0617 19.7382C85.4268 19.6764 85.684 19.3631 85.684 19.0102C85.684 18.9678 85.6804 18.9254 85.6732 18.8839C85.6017 18.4806 85.2152 18.2115 84.8072 18.2794L76.1035 19.7603L73.4124 14.2764C73.2331 13.9092 72.7847 13.7557 72.4142 13.934C72.041 14.1122 71.8857 14.5552 72.0668 14.9223L74.6768 20.2456L72.8982 21.107L72.5304 20.4098C73.084 20.0974 73.6179 19.7991 73.6179 19.7991L67.7625 7.85701V0H62.7999C62.7802 0 62.7624 0.00266811 62.7427 0.00266811L62.7446 0.000873712C62.6625 0.000873712 62.591 0.00793857 62.5142 0.0105973C62.4392 0.0141297 62.3606 0.0141297 62.2892 0.0202833L62.2793 0.0220683C61.4365 0.0882637 60.7964 0.32565 60.3115 0.625709C60.1017 0.753694 59.907 0.901953 59.7312 1.07223C59.6928 1.1093 59.6534 1.14549 59.6178 1.18256C59.6053 1.19403 59.5927 1.20637 59.5803 1.21963C59.5589 1.24343 59.5402 1.26637 59.5205 1.29114C59.0623 1.81533 58.916 2.29896 58.916 2.29896L55.9454 3.18055C55.1534 3.4162 54.7043 4.24049 54.941 5.02234C55.1785 5.80603 56.0142 6.25082 56.8062 6.01522L59.116 5.32947L60.5677 4.89881L61.6142 4.58815C62.4071 4.35343 62.8571 3.52919 62.6187 2.74549C62.4509 2.19126 61.9793 1.8118 61.4374 1.71914C61.7785 1.58409 62.1802 1.50467 62.6464 1.49055C62.7 1.48876 62.7464 1.47996 62.7999 1.47996C62.7999 1.47996 65.2517 1.47996 66.2642 1.47996V7.58516L64.8214 8.35382C64.1445 8.73244 63.5956 9.12604 63.15 9.52843L60.8937 5.57484L59.4427 6.00549L62.1071 10.8204C62.0445 10.9449 61.9927 11.0676 61.9517 11.1929C61.9071 11.3253 61.8722 11.4594 61.85 11.5935C61.8277 11.7303 61.8178 11.8601 61.8178 11.9845C61.8178 12.6278 62.074 13.0664 62.225 13.2739C62.5482 14.0204 62.682 14.6841 62.682 15.2647C62.682 17.4384 60.8625 18.478 60.6017 18.6147L59.9124 18.9802L60.3071 19.6455C60.3071 19.6455 60.7259 20.348 61.0651 20.9146C60.1177 21.4529 51.323 26.4417 47.5937 28.5571L47.5392 28.888L47.4972 29.136L47.3436 30.0856V30.0892L47.2874 30.436C47.8829 30.098 63.125 21.4529 63.125 21.4529C63.125 21.4529 62.2964 20.0665 61.958 19.5008C62.7624 18.9042 63.6035 17.9317 63.9722 16.6185C64.2785 17.2028 64.6017 17.8241 64.9259 18.4471C65.0161 18.6192 65.1052 18.7913 65.1945 18.9642C65.6857 20.0295 67.6142 25.0465 63.7606 31.2788C63.5445 31.6274 63.6553 32.0819 64.0081 32.2963C64.3615 32.509 64.8214 32.3987 65.0375 32.0492C67.0142 28.8527 67.5999 25.9282 67.6062 23.5877C67.6097 23.5974 67.6161 23.608 67.6214 23.6186C67.6161 23.3503 67.6043 23.0838 67.5875 22.8191C67.4393 20.0039 66.491 18.2 66.4161 18.0641C66.3982 18.0305 66.3767 18.0005 66.3535 17.9714C66.3195 17.9026 66.2902 17.8329 66.2543 17.7658C66.2543 17.7658 63.2677 12.4002 63.3143 11.9818C63.3214 11.9254 63.3195 11.8653 63.3331 11.7991C63.3427 11.7506 63.357 11.6977 63.3785 11.6367C63.5267 11.2176 64.0142 10.5072 65.5456 9.64848C65.5456 9.64848 66.1472 9.32897 66.6804 9.04393C66.6945 9.0731 66.716 9.11897 66.7357 9.15603C67.332 10.3757 70.0634 15.9426 71.2081 18.2777C71.4214 18.7136 71.5812 19.0366 71.659 19.1972C71.0946 19.514 69.9999 20.1292 69.9901 20.1345H69.9893C69.9893 20.1345 69.8785 22.4219 68.933 25.9211C68.8161 26.3367 68.6902 26.7673 68.5463 27.2219C67.891 29.287 66.9411 31.7403 65.5571 34.4576C65.3445 34.8768 65.1232 35.3004 64.8875 35.7319C64.5945 36.2508 64.3142 36.7416 64.0472 37.2066C59.9982 44.2578 59.0035 45.241 59.0035 45.241V45.2392L59.0016 45.2418C59.0026 45.2559 59.0054 45.2647 59.0054 45.278C58.9695 44.8827 58.9142 44.5465 58.8464 44.2614C58.7579 43.8942 58.6498 43.6101 58.5268 43.3929C58.3018 42.9959 58.0355 42.8211 57.7873 42.7593L57.6981 42.7373C57.6981 42.7373 55.9758 42.7373 55.1893 42.7373C55.0123 41.8142 54.3812 38.511 54.3812 38.511C53.933 36.0452 52.0857 35.3127 51.1714 35.2722H46.4981L46.2579 36.7512H51.1374C51.2427 36.7609 52.5695 36.9092 52.9088 38.7783L53.9499 44.2164C53.9499 44.2164 56.7392 44.2164 57.2705 44.2164C57.3553 44.4088 57.4911 44.8526 57.541 45.7599H44.7901L44.5499 47.2398H58.4482L58.5767 47.1905C60.7812 46.3627 62.6107 44.2173 64.1107 41.5626C64.1919 42.1407 64.2964 42.7135 64.4339 43.2783C64.658 44.1926 65.5875 44.7538 66.5107 44.5332C67.4356 44.3126 68.0035 43.3929 67.7803 42.4796C67.5134 41.3799 67.3767 40.2424 67.3767 39.1014ZM81.9394 25.2018C79.9999 25.2018 78.1519 25.5919 76.4696 26.2961L77.8821 28.9825C79.1393 28.4883 80.5045 28.2077 81.9394 28.2077C88.0144 28.2077 92.958 33.0949 92.958 39.1014C92.958 45.1068 88.0144 49.9924 81.9394 49.9924C75.8625 49.9924 70.9179 45.1068 70.9179 39.1014C70.9179 36.6912 71.7232 34.4699 73.0678 32.6652L71.5402 29.7556C69.266 32.2257 67.8767 35.506 67.8767 39.1014C67.8767 46.7642 74.1849 53 81.9394 53C89.692 53 96 46.7642 96 39.1014C96 31.4367 89.692 25.2018 81.9394 25.2018ZM31.532 27.9482C28.6802 27.9482 28.1811 29.9162 28.1454 31.1376H28.1436V35.228C28.1436 35.228 28.232 37.1245 30.0972 37.1457C30.107 37.1465 30.1141 37.1465 30.1222 37.1465C30.1257 37.1465 30.1257 37.1475 30.1275 37.1475C30.157 37.1493 30.1766 37.1475 30.1766 37.1475C30.1766 37.1475 31.6686 37.1475 33.8436 37.1475H39.3936C44.1374 37.1475 44.2722 35.5166 44.2722 34.5388C44.2722 29.5147 35.6659 27.9482 31.532 27.9482Z" fill="#F2EEF3"/>
</g>
<defs>
<clipPath id="clip0_64_27276">
<rect width="96" height="53" fill="white"/>
</clipPath>
</defs>
</svg>
