<svg width="59" height="55" viewBox="0 0 59 55" fill="none" xmlns="http://www.w3.org/2000/svg">
<path d="M5.15747 44.0165V48.794C5.15747 51.1145 7.79647 53.0255 10.9815 53.0255H47.2905C50.521 53.0255 53.1145 51.1145 53.1145 48.794V44.0165H5.15747Z" stroke="#F2EEF3" stroke-width="3" stroke-miterlimit="10" stroke-linecap="round" stroke-linejoin="round"/>
<path d="M53.433 44.5625H5.56699C3.83799 44.5625 2.42749 43.152 2.42749 41.423V40.2855C2.42749 38.5565 3.83799 37.146 5.56699 37.146H53.433C55.162 37.146 56.5725 38.5565 56.5725 40.2855V41.423C56.5725 43.152 55.162 44.5625 53.433 44.5625Z" stroke="#F2EEF3" stroke-width="3" stroke-miterlimit="10" stroke-linecap="round" stroke-linejoin="round"/>
<path d="M12.4613 37.5469L36.4048 49.0664L51.4917 37.7212" fill="#F2EEF3"/>
<path d="M12.4613 37.5469L36.4048 49.0664L51.4917 37.7212" stroke="#F2EEF3" stroke-width="3" stroke-miterlimit="10" stroke-linecap="round" stroke-linejoin="round"/>
<path d="M28.8179 2.02C15.4409 2.02 4.38441 11.8935 2.47341 24.7245C2.15491 26.772 3.74741 28.6375 5.84041 28.6375H51.7954C53.8884 28.6375 55.4809 26.772 55.1624 24.7245C53.2514 11.8935 42.1949 2.02 28.8179 2.02Z" stroke="#F2EEF3" stroke-width="3" stroke-miterlimit="10" stroke-linecap="round" stroke-linejoin="round"/>
<path d="M45.425 13.7135C47.7 15.943 50.157 19.7195 50.612 23.9055" stroke="#F2EEF3" stroke-width="3" stroke-miterlimit="10" stroke-linecap="round" stroke-linejoin="round"/>
<path d="M42.9225 11.3475C42.9225 11.3475 41.1025 8.6175 36.5525 6.7975" stroke="#F2EEF3" stroke-width="3" stroke-miterlimit="10" stroke-linecap="round" stroke-linejoin="round"/>
</svg>
