<svg width="52" height="69" viewBox="0 0 52 69" fill="none" xmlns="http://www.w3.org/2000/svg">
<path d="M26.1694 34.2121C22.8277 34.2121 19.561 33.2212 16.7825 31.3646C14.004 29.5081 11.8384 26.8693 10.5596 23.7819C9.28076 20.6946 8.94616 17.2974 9.5981 14.0199C10.25 10.7424 11.8592 7.73183 14.2222 5.36889C16.5851 3.00594 19.5957 1.39676 22.8732 0.744825C26.1507 0.0928903 29.5479 0.427487 32.6352 1.7063C35.7225 2.98512 38.3613 5.15072 40.2179 7.92924C42.0744 10.7078 43.0654 13.9744 43.0654 17.3161C43.0609 21.7959 41.2794 26.0908 38.1117 29.2584C34.9441 32.4261 30.6491 34.2076 26.1694 34.2121ZM26.1694 6.05216C23.9416 6.05216 21.7638 6.71278 19.9115 7.95048C18.0591 9.18819 16.6154 10.9474 15.7629 13.0056C14.9103 15.0638 14.6872 17.3286 15.1219 19.5136C15.5565 21.6986 16.6293 23.7057 18.2046 25.281C19.7799 26.8563 21.7869 27.9291 23.9719 28.3637C26.1569 28.7983 28.4217 28.5752 30.4799 27.7227C32.5382 26.8702 34.2974 25.4264 35.5351 23.5741C36.7728 21.7217 37.4334 19.5439 37.4334 17.3161C37.4334 14.3287 36.2466 11.4637 34.1342 9.3513C32.0218 7.2389 29.1568 6.05216 26.1694 6.05216Z" fill="#F2EEF3"/>
<path d="M51.5136 68.3721H45.8816V54.171C45.8793 51.9633 45.0013 49.8466 43.4402 48.2855C41.8791 46.7244 39.7624 45.8464 37.5547 45.8441H14.7846C12.5768 45.8464 10.4601 46.7244 8.89903 48.2855C7.33792 49.8466 6.45991 51.9633 6.45767 54.171V68.3721H0.825684V54.171C0.830155 50.4703 2.30225 46.9224 4.91908 44.3056C7.53591 41.6887 11.0838 40.2166 14.7846 40.2122H37.5547C41.2554 40.2166 44.8033 41.6887 47.4202 44.3056C50.037 46.9224 51.5091 50.4703 51.5136 54.171V68.3721Z" fill="#F2EEF3"/>
</svg>
