<svg width="338" height="61" viewBox="0 0 338 61" fill="none" xmlns="http://www.w3.org/2000/svg">
<path fill-rule="evenodd" clip-rule="evenodd" d="M191.231 0.857065C189.053 2.17308 188.327 3.53448 188.327 6.2119C188.327 7.89096 188.554 8.7078 189.053 8.98008C189.462 9.20698 189.779 9.57002 189.734 9.79692C189.734 10.0238 190.687 10.5684 191.912 11.0222C193.773 11.7483 194.408 11.7936 196.042 11.3398C199.218 10.4776 201.033 7.66406 200.262 4.6236C199.309 0.675545 194.68 -1.23041 191.231 0.857065ZM171.536 24.9539V49.4591H176.982H182.428V24.9539V0.448695H176.982H171.536V24.9539ZM0 26.1791C0 13.3366 0.13614 2.71769 0.31766 2.58155C0.4538 2.40003 2.76818 2.26389 5.40022 2.26389H10.2105L11.2996 4.62365C11.8896 5.93967 13.6594 9.61545 15.2477 12.792C16.836 16.014 18.0158 18.6007 17.9251 18.6007C17.7889 18.6007 18.6965 20.6428 19.9672 23.1387C21.2378 25.6346 22.4631 27.6767 22.69 27.6767C23.053 27.6767 27.5456 18.7368 35.0333 3.26225C35.5325 2.30927 35.8048 2.26389 40.4336 2.26389H45.2892L45.6069 5.07745C45.743 6.66575 45.8338 17.2393 45.743 28.5843L45.6069 49.2322H40.3882H35.1695L35.0333 37.0703C34.9426 26.1791 34.6703 23.3656 33.8988 25.7253C33.7627 26.1791 32.2198 29.1742 30.4953 32.4416L27.4095 38.341L22.7807 38.4771L18.1974 38.6132L14.8846 31.7609C13.0694 28.0397 11.2996 24.9539 11.0273 24.9539C10.5735 24.9539 10.4374 27.6767 10.4374 37.2065V49.4591H5.2187H0V26.1791ZM89.3984 25.8615V49.4591H98.8374C104.011 49.4591 109.865 49.2322 111.861 49.0053L112.593 48.9078C116.643 48.3688 116.799 48.3479 117.443 47.9615C117.716 47.7346 117.988 47.6892 117.988 47.8708C117.988 48.0069 118.941 47.5985 120.166 46.9178C123.025 45.3295 125.975 42.1983 127.427 39.067C128.652 36.5258 128.652 36.4804 128.652 25.8615C128.652 15.2879 128.652 15.1972 127.472 12.7013C124.976 7.48259 121.391 4.71441 115.265 3.12611C112.361 2.40003 110.137 2.26389 100.653 2.26389H89.3984V25.8615ZM111.952 12.2021C114.584 12.7013 116.853 15.1972 117.534 18.283C117.852 19.6898 118.033 23.2748 117.897 27.2229C117.716 34.8467 117.171 36.5258 114.221 38.4771C112.497 39.6116 111.998 39.7024 106.325 39.8385L100.29 40.02V25.9069V11.7937H105.191C107.868 11.8391 110.909 12.0206 111.952 12.2021ZM52.2324 22.6849C54.4106 18.0107 57.9956 15.061 62.8059 14.0627C63.8043 13.8358 66.5271 13.745 68.8414 13.8358C72.1542 13.9719 73.561 14.2442 75.7846 15.2426C80.368 17.2847 83.953 22.1857 83.953 26.406V27.6767H79.1881H74.4232L74.1509 26.406C73.0164 21.7319 65.1657 20.5974 62.6244 24.727C61.8529 25.9976 61.7168 26.9506 61.7168 31.7155C61.7168 37.4787 61.9437 38.4317 63.9404 40.2015C65.1657 41.336 67.0262 41.7445 69.5675 41.3814C71.5642 41.1091 73.9694 38.9309 73.9694 37.3426C73.9694 36.2989 74.0601 36.2989 78.9612 36.2989C83.8622 36.2989 83.953 36.2989 83.953 37.3426C83.953 39.8385 82.4554 42.7882 79.8688 45.3295C76.3745 48.8237 72.6534 50.049 66.3909 49.8221C64.0312 49.7767 61.9891 49.5498 61.8529 49.3229C61.7622 49.1414 61.4445 49.096 61.2176 49.2322C60.9907 49.4137 60.8092 49.3229 60.8092 49.0506C60.8092 48.8237 60.2192 48.5061 59.4932 48.3246C56.8611 47.7346 52.6862 43.605 52.3231 41.1545C52.2324 40.61 52.0055 40.0654 51.8239 39.9293C51.234 39.5208 51.0525 37.1611 51.0525 31.0802C51.0979 25.7253 51.1886 24.9539 52.2324 22.6849ZM145.851 14.0626C143.174 14.6072 139.816 16.4224 138.091 18.2376C137.274 19.0544 136.095 20.9604 135.414 22.4579C134.325 24.7723 134.143 25.9522 133.962 30.3087C133.689 36.7073 134.37 40.1561 136.503 43.2874C137.32 44.558 138.273 45.7379 138.545 45.9194C138.863 46.0555 139.589 46.6001 140.133 47.1446C142.039 48.7329 145.534 49.6405 149.981 49.6859C154.473 49.6859 157.015 49.4136 157.015 48.9599C157.015 48.7783 157.605 48.5514 158.285 48.4153C160.963 47.8707 166.59 41.4268 165.909 39.7023C165.728 39.1578 164.775 39.0216 161.417 39.0216C157.287 39.0216 157.105 39.067 155.699 40.383C153.248 42.7428 151.115 43.1966 148.03 41.9713C146.124 41.1999 144.989 39.657 144.535 37.1157L144.218 35.3912L155.245 35.3005L166.318 35.1643V29.9456C166.272 25.3169 166.136 24.4547 165.138 22.1857C162.642 16.8762 158.24 14.108 151.705 13.8357C149.482 13.745 146.85 13.8357 145.851 14.0626ZM154.383 22.4579C155.744 23.5924 156.924 27.0413 156.425 28.2666C156.198 28.9473 155.29 29.038 150.208 29.038C149.89 29.038 149.588 29.0385 149.301 29.0389C146.144 29.0433 144.842 29.0451 144.451 28.4491C144.176 28.0308 144.351 27.3181 144.648 26.105C144.684 25.9558 144.723 25.7992 144.762 25.6345C144.989 24.5454 145.715 23.3202 146.577 22.5487C147.757 21.505 148.347 21.3234 150.571 21.3234C152.658 21.3688 153.384 21.5503 154.383 22.4579ZM247.911 16.014C248.954 15.3333 250.951 14.5165 252.313 14.2442C257.077 13.2005 262.432 13.6543 265.927 15.4241C268.15 16.5586 270.555 19.0999 271.871 21.6411C272.87 23.5925 272.96 24.3639 272.96 29.4919C272.96 33.7122 272.824 35.1644 272.416 35.2098C272.098 35.2551 267.243 35.3005 261.615 35.3459L251.405 35.3913V36.5711C251.405 42.0167 258.575 44.558 262.659 40.5646L264.247 39.0217H268.74L269.113 39.0216C271.545 39.0204 272.672 39.0199 272.948 39.5043C273.187 39.9226 272.791 40.7023 272.054 42.1553L272.053 42.1556L271.917 42.4252C271.055 44.1042 266.88 48.1884 266.335 47.8254C266.108 47.6892 265.927 47.78 265.927 47.9615C265.927 48.1884 264.474 48.733 262.705 49.1868C258.711 50.2305 252.585 49.9582 250.18 48.6422C249.635 48.3246 248.864 48.0977 248.455 48.0977C248.092 48.0977 247.638 47.78 247.502 47.417C247.321 47.0539 246.958 46.7363 246.64 46.7363C245.869 46.7363 242.828 43.0605 242.601 41.926C242.465 41.4268 242.147 40.4284 241.875 39.7024C240.65 36.6619 240.968 26.2699 242.329 22.6849C242.374 22.5487 242.42 22.3218 242.374 22.0949C242.374 21.9134 242.556 21.7773 242.783 21.7773C243.055 21.7773 243.191 21.5958 243.146 21.3689C242.919 20.6882 246.005 17.2393 247.911 16.014ZM263.113 26.5422C262.931 24.5455 262.614 23.7286 261.615 22.6849C260.481 21.505 259.982 21.3235 257.713 21.3235C255.807 21.3235 254.854 21.5504 253.946 22.2765C252.358 23.5471 251.496 25.2715 251.587 27.2229L251.632 28.8112L257.486 28.9473L263.34 29.0835L263.113 26.5422ZM294.244 14.6979C292.701 15.3786 290.885 17.4207 290.885 18.4645C290.885 18.8275 290.613 19.0544 290.341 18.9637C290.023 18.8275 289.706 17.8292 289.615 16.6493L289.479 14.5164H284.396H279.314L279.45 31.8516L279.586 49.2321L284.986 49.3682L290.432 49.5044V40.0653C290.432 34.892 290.659 29.8549 290.885 28.9473C291.612 26.3606 293.654 25.0446 297.148 24.9084L299.961 24.8177V19.4175V14.0626H297.829C296.603 14.108 295.015 14.3803 294.244 14.6979ZM188.781 49.4591V31.9424V14.4257L190.051 14.7434C191.504 15.1064 196.995 15.1064 198.583 14.698L199.672 14.4257V31.9424V49.4591H194.226H188.781ZM205.117 14.8795C205.117 15.061 205.344 15.4695 205.662 15.7871C205.98 16.1048 206.07 16.3317 205.934 16.3317C205.753 16.3317 207.296 21.0966 209.292 26.8598C210.132 29.3582 211.047 32.058 211.885 34.5332L211.887 34.539C212.998 37.8163 213.975 40.6992 214.466 42.1983C214.68 42.8202 214.895 43.4447 215.101 44.0448C215.767 45.9842 216.345 47.6686 216.553 48.1884L217.007 49.4591H222.18H227.354L227.853 48.1884C228.533 46.5547 233.571 32.0332 236.883 22.3218L239.561 14.5165H234.206H228.897L226.673 22.3218C225.448 26.6329 224.404 30.581 224.359 31.0802C224.313 31.5794 224.222 31.9878 224.177 31.9878C224.146 31.9878 224.094 32.1557 224.021 32.3917C223.987 32.5026 223.948 32.6286 223.905 32.7592C223.848 33.044 223.755 33.436 223.671 33.7894L223.671 33.7898C223.622 33.9994 223.575 34.1955 223.542 34.3475C223.461 34.6169 223.396 34.8863 223.347 35.0893C223.314 35.2282 223.288 35.336 223.269 35.3913C223.224 35.5274 223.133 35.8904 223.088 36.2535C223.088 36.6165 222.816 36.9796 222.543 37.0703C221.999 37.2519 221.273 34.9829 218.005 22.821L215.782 14.5165H210.472C207.523 14.5165 205.117 14.698 205.117 14.8795ZM308.538 27.5859C306.587 22.1403 304.681 17.0124 304.318 16.1048L303.637 14.4711L309.128 14.6072L314.619 14.7434L317.478 24.7269C319.066 30.2179 320.428 35.2097 320.519 35.7997C320.609 36.435 320.927 37.0249 321.199 37.1157C321.266 37.138 321.324 37.1596 321.38 37.1557C321.782 37.1281 322.094 35.8005 324.92 24.137L327.28 14.5165H332.726C336.901 14.5165 338.126 14.6526 337.99 15.061C337.854 15.3787 337.445 16.6493 337.037 17.92C332.454 32.4869 330.185 39.5662 329.685 41.0637C329.571 41.4227 329.363 42.0631 329.101 42.8692C328.635 44.3051 327.998 46.2665 327.416 48.0976C325.42 54.2239 324.557 56.0391 322.788 57.7182C320.791 59.6241 318.567 60.3502 314.619 60.3502C311.516 60.3502 310.137 60.377 309.525 59.7051C309.009 59.1389 309.037 58.0767 309.037 56.0845V52.4087L311.715 52.5449C314.12 52.681 314.438 52.5903 315.345 51.4558C315.844 50.8204 316.298 49.8675 316.298 49.3683C316.298 48.9145 315.345 46.0102 314.211 42.9697C313.58 41.2785 312.513 38.3799 311.348 35.211C310.418 32.6827 309.424 29.9824 308.538 27.5859Z" fill="#F2EEF3"/>
</svg>
